Sprint_04500001_forces_filt100Hz.mot
version=1
nRows=24
nColumns=19
inDegrees=yes
endheader
time	R_ground_force_vx	R_ground_force_vy	R_ground_force_vz	R_ground_force_px	R_ground_force_py	R_ground_force_pz	R_ground_torque_x	R_ground_torque_y	R_ground_torque_z	L_ground_force_vx	L_ground_force_vy	L_ground_force_vz	L_ground_force_px	L_ground_force_py	L_ground_force_pz	L_ground_torque_x	L_ground_torque_y	L_ground_torque_z	
2.943000	  0.000000	  0.000000	  0.000000	  0.715122	  0.000000	 -0.213865	  0.000000	  0.000000	  0.000000	281.926767	2057.736401	-20.745472	  0.715712	  0.000000	 -0.328499	  0.000000	-10.783202	  0.000000
2.943500	  0.000000	  0.000000	  0.000000	  0.717640	  0.000000	 -0.213906	  0.000000	  0.000000	  0.000000	287.909405	2037.113691	-16.676584	  0.712536	  0.000000	 -0.327918	  0.000000	-14.783545	  0.000000
2.944000	  0.000000	  0.000000	  0.000000	  0.720158	  0.000000	 -0.213947	  0.000000	  0.000000	  0.000000	293.731322	2015.942509	-11.463684	  0.709258	  0.000000	 -0.327305	  0.000000	-19.244577	  0.000000
2.944500	  0.000000	  0.000000	  0.000000	  0.722676	  0.000000	 -0.213988	  0.000000	  0.000000	  0.000000	299.301849	1994.476854	 -5.253567	  0.705903	  0.000000	 -0.326682	  0.000000	-24.209989	  0.000000
2.945000	  0.000000	  0.000000	  0.000000	  0.725194	  0.000000	 -0.214029	  0.000000	  0.000000	  0.000000	304.559121	1972.968953	  1.771497	  0.702493	  0.000000	 -0.326075	  0.000000	-29.682080	  0.000000
2.945500	  0.000000	  0.000000	  0.000000	  0.727677	  0.000000	 -0.214054	  0.000000	  0.000000	  0.000000	309.464438	1951.673641	  9.401997	  0.699046	  0.000000	 -0.325509	  0.000000	-35.617873	  0.000000
2.946000	  0.000000	  0.000000	  0.000000	  0.730161	  0.000000	 -0.214078	  0.000000	  0.000000	  0.000000	314.002283	1930.843167	 17.415469	  0.695594	  0.000000	 -0.325007	  0.000000	-41.931567	  0.000000
2.946500	  0.000000	  0.000000	  0.000000	  0.732644	  0.000000	 -0.214103	  0.000000	  0.000000	  0.000000	318.183728	1910.707501	 25.596745	  0.692182	  0.000000	 -0.324586	  0.000000	-48.503573	  0.000000
2.947000	  0.000000	  0.000000	  0.000000	  0.735128	  0.000000	 -0.214128	  0.000000	  0.000000	  0.000000	322.049608	1891.443831	 33.761179	  0.688869	  0.000000	 -0.324257	  0.000000	-55.194477	  0.000000
2.947500	  0.000000	  0.000000	  0.000000	  0.737612	  0.000000	 -0.214153	  0.000000	  0.000000	  0.000000	325.669457	1873.145771	 41.774973	  0.685719	  0.000000	 -0.324021	  0.000000	-61.861009	  0.000000
2.948000	  0.000000	  0.000000	  0.000000	  0.740095	  0.000000	 -0.214178	  0.000000	  0.000000	  0.000000	329.134739	1855.800717	 49.567882	  0.682791	  0.000000	 -0.323871	  0.000000	-68.370374	  0.000000
2.948500	  0.000000	  0.000000	  0.000000	  0.742579	  0.000000	 -0.214202	  0.000000	  0.000000	  0.000000	332.547015	1839.282492	 57.135025	  0.680125	  0.000000	 -0.323790	  0.000000	-74.609647	  0.000000
2.949000	  0.000000	  0.000000	  0.000000	  0.745062	  0.000000	 -0.214227	  0.000000	  0.000000	  0.000000	336.002518	1823.363759	 64.527493	  0.677732	  0.000000	 -0.323759	  0.000000	-80.488535	  0.000000
2.949500	  0.000000	  0.000000	  0.000000	  0.747546	  0.000000	 -0.214252	  0.000000	  0.000000	  0.000000	339.575760	1807.748263	 71.834054	  0.675589	  0.000000	 -0.323758	  0.000000	-85.935374	  0.000000
2.950000	  0.000000	  0.000000	  0.000000	  0.750030	  0.000000	 -0.214277	  0.000000	  0.000000	  0.000000	343.305836	1792.116774	 79.157034	  0.673641	  0.000000	 -0.323768	  0.000000	-90.888918	  0.000000
2.950500	  0.000000	  0.000000	  0.000000	  0.752597	  0.000000	 -0.214297	  0.000000	  0.000000	  0.000000	347.189346	1776.176707	 86.586170	  0.671812	  0.000000	 -0.323775	  0.000000	-95.289239	  0.000000
2.951000	  0.000000	  0.000000	  0.000000	  0.755165	  0.000000	 -0.214317	  0.000000	  0.000000	  0.000000	351.181074	1759.704390	 94.174561	  0.670019	  0.000000	 -0.323773	  0.000000	-99.069998	  0.000000
2.951500	  0.000000	  0.000000	  0.000000	  0.757733	  0.000000	 -0.214337	  0.000000	  0.000000	  0.000000	355.200862	1742.567149	101.921466	  0.668190	  0.000000	 -0.323762	  0.000000	-102.153903	  0.000000
2.952000	  0.000000	  0.000000	  0.000000	  0.760301	  0.000000	 -0.214357	  0.000000	  0.000000	  0.000000	359.142981	1724.719010	109.764658	  0.666266	  0.000000	 -0.323747	  0.000000	-104.452189	  0.000000
2.952500	  0.000000	  0.000000	  0.000000	  0.762869	  0.000000	 -0.214376	  0.000000	  0.000000	  0.000000	362.883667	1706.172617	117.582531	  0.664206	  0.000000	 -0.323730	  0.000000	-105.867909	  0.000000
2.953000	  0.000000	  0.000000	  0.000000	  0.765437	  0.000000	 -0.214396	  0.000000	  0.000000	  0.000000	366.286460	1686.961122	125.204411	  0.661989	  0.000000	 -0.323716	  0.000000	-106.302963	  0.000000
2.953500	  0.000000	  0.000000	  0.000000	  0.768004	  0.000000	 -0.214416	  0.000000	  0.000000	  0.000000	369.207758	1667.109973	132.426791	  0.659606	  0.000000	 -0.323702	  0.000000	-105.668926	  0.000000
2.954000	  0.000000	  0.000000	  0.000000	  0.770572	  0.000000	 -0.214436	  0.000000	  0.000000	  0.000000	371.504811	1646.628482	139.033045	  0.657067	  0.000000	 -0.323684	  0.000000	-103.899845	  0.000000
2.954500	  0.000000	  0.000000	  0.000000	  0.773140	  0.000000	 -0.214456	  0.000000	  0.000000	  0.000000	373.047483	1625.522398	144.813302	  0.654392	  0.000000	 -0.323658	  0.000000	-100.963891	  0.000000
